<svg width="33" height="32" viewBox="0 0 33 32" fill="none" xmlns="http://www.w3.org/2000/svg">
<g clip-path="url(#clip0_2511_12271)">
<path d="M16.5 32C25.3366 32 32.5 24.8366 32.5 16C32.5 7.16344 25.3366 0 16.5 0C7.66344 0 0.5 7.16344 0.5 16C0.5 24.8366 7.66344 32 16.5 32Z" fill="#334C8C"/>
<path d="M20.5551 14.4863L20.2898 16.7137C20.2784 16.8171 20.229 16.9127 20.1513 16.9819C20.0735 17.0511 19.9729 17.0891 19.8688 17.0884H17.553V23.6989C17.5535 23.7779 17.5229 23.8538 17.4677 23.9102C17.4124 23.9666 17.3372 23.9989 17.2582 24H14.8982C14.859 23.9995 14.8202 23.9912 14.7842 23.9756C14.7481 23.9601 14.7155 23.9376 14.6881 23.9095C14.6607 23.8813 14.6392 23.8481 14.6246 23.8116C14.6101 23.7751 14.603 23.7361 14.6035 23.6968L14.6161 17.0884H12.8625C12.7508 17.0884 12.6437 17.0441 12.5647 16.9651C12.4858 16.8861 12.4414 16.779 12.4414 16.6674V14.44C12.4414 14.3283 12.4858 14.2212 12.5647 14.1423C12.6437 14.0633 12.7508 14.0189 12.8625 14.0189H14.6056V11.8589C14.6056 9.36 16.0919 8 18.2688 8H20.0519C20.1636 8 20.2707 8.04436 20.3497 8.12332C20.4286 8.20229 20.473 8.30938 20.473 8.42105V10.2968C20.473 10.4085 20.4286 10.5156 20.3497 10.5946C20.2707 10.6735 20.1636 10.7179 20.0519 10.7179H18.9593C17.7761 10.7368 17.553 11.3032 17.553 12.1495V14.0126H20.1446C20.2037 14.0136 20.2619 14.0271 20.3155 14.0521C20.3691 14.0771 20.4168 14.1132 20.4555 14.1579C20.4943 14.2025 20.5231 14.2549 20.5403 14.3115C20.5574 14.3681 20.5625 14.4276 20.5551 14.4863Z" fill="white"/>
</g>
<defs>
<clipPath id="clip0_2511_12271">
<rect width="32" height="32" fill="white" transform="translate(0.5)"/>
</clipPath>
</defs>
</svg>
