<svg width="24" height="25" viewBox="0 0 24 25" fill="none" xmlns="http://www.w3.org/2000/svg">
<path d="M9.56999 12.96L6.51999 16.01" stroke="white" stroke-width="1.5" stroke-miterlimit="10" stroke-linecap="round" stroke-linejoin="round"/>
<path d="M6.54999 12.99L9.59999 16.04" stroke="white" stroke-width="1.5" stroke-miterlimit="10" stroke-linecap="round" stroke-linejoin="round"/>
<path d="M13.53 14.5H13.54" stroke="white" stroke-width="2" stroke-miterlimit="10" stroke-linecap="round" stroke-linejoin="round"/>
<path d="M17.47 14.5H17.48" stroke="white" stroke-width="2" stroke-miterlimit="10" stroke-linecap="round" stroke-linejoin="round"/>
<path d="M15.5 16.48V16.46" stroke="white" stroke-width="2" stroke-miterlimit="10" stroke-linecap="round" stroke-linejoin="round"/>
<path d="M15.5 12.54V12.52" stroke="white" stroke-width="2" stroke-miterlimit="10" stroke-linecap="round" stroke-linejoin="round"/>
<path d="M9 22.5H15C20 22.5 22 20.5 22 15.5V13.5C22 8.5 20 6.5 15 6.5H9C4 6.5 2 8.5 2 13.5V15.5C2 20.5 4 22.5 9 22.5Z" stroke="white" stroke-width="1.5" stroke-linecap="round" stroke-linejoin="round"/>
<path d="M13.01 2.5L13 3.51C12.99 4.06 12.55 4.5 12 4.5H11.97C11.42 4.5 10.98 4.95 10.98 5.5C10.98 6.05 11.43 6.5 11.98 6.5H12.98" stroke="white" stroke-width="1.5" stroke-linecap="round" stroke-linejoin="round"/>
</svg>
