<svg width="64" height="64" viewBox="0 0 64 64" fill="none" xmlns="http://www.w3.org/2000/svg">
<path d="M59.3601 56.54L49.3601 47.28C53.8194 42.244 56.1535 35.6758 55.872 28.9552C55.5905 22.2345 52.7153 15.8846 47.8504 11.2392C42.9855 6.59384 36.5096 4.0147 29.7832 4.04357C23.0567 4.07245 16.6032 6.70712 11.7784 11.3941C6.95355 16.081 4.13298 22.4555 3.90918 29.1783C3.68539 35.9011 6.07578 42.449 10.5782 47.4465C15.0806 52.4439 21.3446 55.502 28.0543 55.9781C34.764 56.4543 41.3971 54.3115 46.5601 50V50.1L56.5601 59.42C56.7475 59.6202 56.974 59.7797 57.2256 59.8887C57.4772 59.9977 57.7485 60.0537 58.0227 60.0534C58.2969 60.0531 58.5681 59.9964 58.8195 59.8869C59.0708 59.7773 59.297 59.6173 59.4839 59.4166C59.6708 59.216 59.8144 58.9791 59.9059 58.7206C59.9973 58.4621 60.0347 58.1876 60.0156 57.914C59.9965 57.6405 59.9213 57.3738 59.7948 57.1306C59.6683 56.8873 59.4931 56.6727 59.2801 56.5L59.3601 56.54ZM30.0001 52C25.6489 52 21.3954 50.7097 17.7776 48.2923C14.1597 45.8749 11.3399 42.439 9.67475 38.419C8.00962 34.399 7.57395 29.9756 8.42282 25.708C9.2717 21.4404 11.367 17.5204 14.4437 14.4436C17.5205 11.3669 21.4405 9.27157 25.7081 8.4227C29.9757 7.57382 34.3992 8.0095 38.4191 9.67463C42.4391 11.3398 45.875 14.1595 48.2924 17.7774C50.7098 21.3953 52.0001 25.6488 52.0001 30C52.0001 35.8347 49.6823 41.4305 45.5564 45.5563C41.4306 49.6821 35.8349 52 30.0001 52ZM45.0001 30C45.0001 30.5304 44.7894 31.0391 44.4143 31.4142C44.0392 31.7893 43.5305 32 43.0001 32H32.0001V43C32.0001 43.5304 31.7894 44.0391 31.4143 44.4142C31.0392 44.7893 30.5305 45 30.0001 45C29.4697 45 28.961 44.7893 28.5859 44.4142C28.2108 44.0391 28.0001 43.5304 28.0001 43V32H17.0001C16.4697 32 15.961 31.7893 15.5859 31.4142C15.2108 31.0391 15.0001 30.5304 15.0001 30C15.0001 29.4695 15.2108 28.9608 15.5859 28.5858C15.961 28.2107 16.4697 28 17.0001 28H28.0001V17C28.0001 16.4695 28.2108 15.9608 28.5859 15.5858C28.961 15.2107 29.4697 15 30.0001 15C30.5305 15 31.0392 15.2107 31.4143 15.5858C31.7894 15.9608 32.0001 16.4695 32.0001 17V28H43.0001C43.5305 28 44.0392 28.2107 44.4143 28.5858C44.7894 28.9608 45.0001 29.4695 45.0001 30Z" fill="white"/>
</svg>
