<svg width="32" height="32" viewBox="0 0 32 32" fill="none" xmlns="http://www.w3.org/2000/svg">
<path fill-rule="evenodd" clip-rule="evenodd" d="M4.08854 28.5835C3.59416 28.6775 3.11438 28.3623 3.01696 27.8795C2.92077 27.3966 3.24346 26.9269 3.73784 26.8329C3.73784 26.8329 12.6368 25.0978 18.9725 15.3375C19.2416 14.9224 19.8067 14.7987 20.2329 15.0627C20.6578 15.3256 20.7845 15.8774 20.5154 16.2936C13.7047 26.7842 4.08854 28.5835 4.08854 28.5835Z" fill="#767F27"/>
<path fill-rule="evenodd" clip-rule="evenodd" d="M12.8366 12.4379C13.0643 12.8767 12.8853 13.4143 12.436 13.6378C11.9866 13.8602 11.4362 13.6854 11.2073 13.2466C10.6654 12.2036 10.1686 11.0999 9.7424 9.9416C9.57192 9.47778 9.81912 8.96759 10.294 8.80109C10.7677 8.63459 11.2913 8.87602 11.4618 9.33864C11.8612 10.4256 12.3276 11.4603 12.8366 12.4379Z" fill="#767F27"/>
<path fill-rule="evenodd" clip-rule="evenodd" d="M27.9323 6.07425C27.9323 6.07425 29.0587 10.226 28.3853 14.8606C27.9263 18.0216 26.6318 21.3932 23.6533 23.8788C20.5275 26.488 15.5008 28.1518 7.47979 27.4073C7.03655 27.3657 6.68707 27.0172 6.65541 26.5832C6.65541 26.5832 5.94792 16.8514 13.0203 10.5614C16.0354 7.87836 20.4654 5.8019 26.9935 5.41064C27.4282 5.38447 27.8215 5.66276 27.9323 6.07425ZM26.3286 7.24805C20.7528 7.71544 16.8999 9.52312 14.2502 11.8802C8.95078 16.5933 8.46491 23.4364 8.45883 25.6983C15.3279 26.2074 19.7153 24.8195 22.4673 22.523C25.0744 20.3466 26.174 17.3782 26.577 14.6096C27.0349 11.4592 26.5916 8.5503 26.3286 7.24805Z" fill="#767F27"/>
<path fill-rule="evenodd" clip-rule="evenodd" d="M17.0036 8.72386C17.3142 9.11156 17.2447 9.67171 16.849 9.97616C16.452 10.2806 15.8773 10.2128 15.5668 9.82512C13.9971 7.87235 11.5776 6.13245 7.92201 4.97291C7.54696 5.83275 6.93811 7.43826 6.65682 9.33515C6.2501 12.0824 6.5253 15.473 9.39543 17.9978C9.77048 18.3272 9.79971 18.8909 9.4624 19.2572C9.1251 19.6235 8.54791 19.652 8.17286 19.3226C4.77181 16.3304 4.36753 12.3369 4.84974 9.07945C5.31734 5.91719 6.61541 3.48157 6.61541 3.48157C6.81512 3.10338 7.2608 2.91667 7.67969 3.0356C12.2205 4.31882 15.1393 6.4036 17.0036 8.72386Z" fill="#767F27"/>
</svg>
