<svg width="216" height="233" viewBox="0 0 216 233" fill="none" xmlns="http://www.w3.org/2000/svg">
<path d="M198.609 62.5365C198.724 62.2757 198.667 61.9388 198.433 61.6679C198.078 61.2715 197.458 61.1416 197.052 61.3939L17.2121 169.929C16.7816 170.171 16.7506 170.708 17.1058 171.104C17.461 171.501 18.0811 171.631 18.4869 171.378L198.327 62.8431C198.47 62.7863 198.547 62.6769 198.609 62.5365Z" fill="#767F27"/>
<path d="M0.548869 174.62C2.41042 170.577 9.653 168.163 16.6338 169.268C23.6437 170.344 27.8031 174.533 25.9125 178.547C24.0509 182.59 16.8083 185.004 9.82753 183.899C2.84672 182.823 -1.34177 178.634 0.548869 174.62C2.41042 170.577 -1.34177 178.634 0.548869 174.62ZM22.9456 178.081C24.3709 174.998 21.2004 171.799 15.8485 170.984C10.4965 170.141 4.97004 172.002 3.54479 175.085C2.11955 178.169 5.29 181.368 10.6419 182.183C15.9939 182.997 21.5204 181.165 22.9456 178.081C24.3709 174.969 21.5204 181.165 22.9456 178.081Z" fill="#767F27"/>
</svg>
