<svg width="70" height="41" viewBox="0 0 70 41" fill="none" xmlns="http://www.w3.org/2000/svg">
<path d="M21.7929 29.209C21.4148 29.209 21.0366 29.0054 20.833 28.6564C20.5421 28.1328 20.7167 27.4639 21.2402 27.173L67.808 0.296848C68.3316 0.00598125 69.0005 0.180544 69.2914 0.704104C69.5823 1.22766 69.4078 1.89669 68.8842 2.18755L22.3164 29.0636C22.171 29.1509 21.9965 29.209 21.7929 29.209Z" fill="#767F27"/>
<path d="M0.64663 31.0415C2.50818 26.9984 9.75076 24.5843 16.7316 25.6896C23.7414 26.7658 27.9008 30.9542 26.0101 34.9682C24.1486 39.0113 16.906 41.4254 9.9252 40.3201C2.9444 39.2439 -1.21492 35.0845 0.64663 31.0415C2.53726 26.9984 -1.21492 35.0845 0.64663 31.0415ZM23.0433 34.5028C24.4686 31.4196 21.2981 28.2201 15.9462 27.4057C10.5942 26.5912 5.0678 28.4237 3.64255 31.5069C2.21731 34.5901 5.38767 37.7896 10.7396 38.604C16.0916 39.4476 21.6181 37.586 23.0433 34.5028C24.4977 31.4196 21.6181 37.586 23.0433 34.5028Z" fill="#767F27"/>
</svg>
