<svg width="268" height="203" viewBox="0 0 268 203" fill="none" xmlns="http://www.w3.org/2000/svg">
<path d="M18.1657 175.863C17.7876 175.869 17.4066 175.671 17.1981 175.325C16.8998 174.805 17.0648 174.134 17.5842 173.835L243.78 40.3029C244.299 39.9756 244.971 40.1696 245.269 40.689C245.567 41.2084 245.402 41.8798 244.883 42.1781L18.6871 175.711C18.5433 175.829 18.3693 175.861 18.1657 175.863Z" fill="#767F27"/>
<path d="M265.304 38.1063C263.5 42.1753 256.293 44.6921 249.297 43.7151C242.273 42.7385 238.055 38.6386 239.859 34.5695C241.663 30.5004 248.87 27.9837 255.866 28.9607C262.89 29.9373 267.137 34.0368 265.304 38.1063C267.137 34.0368 263.5 42.1753 265.304 38.1063ZM242.86 34.9633C241.479 38.0664 244.724 41.2201 250.087 41.9585C255.45 42.6969 260.95 40.7861 262.331 37.683C263.712 34.5799 260.468 31.4262 255.105 30.6878C249.741 29.9203 244.242 31.8601 242.86 34.9633C244.242 31.8601 241.479 38.0664 242.86 34.9633Z" fill="#767F27"/>
</svg>
