<svg width="370" height="249" viewBox="0 0 370 249" fill="none" xmlns="http://www.w3.org/2000/svg">
<path d="M309.657 248.366C309.482 248.366 309.279 248.308 309.104 248.22L0.552648 69.57C0.203608 69.3664 0 69.0173 0 68.6392C0 68.2611 0.203608 67.883 0.552648 67.6794L117.539 0.140132C118.063 -0.150735 118.732 0.023739 119.023 0.547299C119.314 1.07086 119.139 1.73988 118.615 2.03075L3.25771 68.6392L309.628 246.01L350.814 222.246C351.338 221.955 352.007 222.13 352.298 222.653C352.589 223.177 352.414 223.846 351.891 224.137L310.18 248.22C310.035 248.308 309.831 248.366 309.657 248.366Z" fill="#767F27"/>
<path d="M368.82 220.547C366.958 224.59 359.716 227.004 352.735 225.899C345.725 224.823 341.566 220.634 343.456 216.62C345.318 212.577 352.56 210.163 359.541 211.268C366.522 212.344 370.71 216.504 368.82 220.547C370.71 216.504 366.958 224.59 368.82 220.547ZM346.423 217.086C344.998 220.169 348.168 223.368 353.52 224.183C358.872 224.997 364.399 223.165 365.824 220.081C367.249 216.998 364.079 213.799 358.727 212.984C353.375 212.141 347.848 213.973 346.423 217.086C347.848 213.973 344.998 220.169 346.423 217.086Z" fill="#767F27"/>
</svg>
