<svg width="162" height="84" viewBox="0 0 162 84" fill="none" xmlns="http://www.w3.org/2000/svg">
<path d="M0 78L10 83.7735V72.2265L0 78ZM26.0001 78V79H26.4986L26.7987 78.6019L26.0001 78ZM26.0001 6L26.8219 5.43022L26.5236 5H26.0001V6ZM0 6L10 11.7735V0.226497L0 6ZM9 79H26.0001V77H9V79ZM52.0001 44.5H162V42.5H52.0001V44.5ZM25.1783 6.56978L51.1783 44.0698L52.8219 42.9302L26.8219 5.43022L25.1783 6.56978ZM9 7H26.0001V5H9V7ZM26.7987 78.6019L52.7987 44.1019L51.2015 42.8981L25.2015 77.3981L26.7987 78.6019Z" fill="#A5B539"/>
</svg>
