<svg width="392" height="211" viewBox="0 0 392 211" fill="none" xmlns="http://www.w3.org/2000/svg">
<path d="M339.225 199C338.761 199 338.296 198.749 338.046 198.32C337.689 197.676 337.903 196.853 338.546 196.495L387.891 167.97L97.1108 2.87212L1.99447 57.6305C1.35131 57.9884 0.529455 57.7736 0.172143 57.1294C-0.185168 56.4852 0.0291618 55.662 0.672323 55.3041L96.4677 0.187896C96.8964 -0.0626321 97.3966 -0.0626321 97.7897 0.187896L391.321 166.825C391.75 167.076 392 167.505 392 167.97C392 168.436 391.75 168.901 391.321 169.151L339.94 198.857C339.69 198.964 339.475 199 339.225 199Z" fill="#767F27"/>
<path d="M317.858 200.522C319.719 196.479 326.962 194.064 333.943 195.17C340.953 196.246 345.112 200.434 343.222 204.448C341.36 208.491 334.117 210.906 327.137 209.8C320.156 208.724 315.967 204.536 317.858 200.522C319.719 196.479 315.967 204.536 317.858 200.522ZM340.255 203.983C341.68 200.9 338.51 197.7 333.158 196.886C327.806 196.042 322.279 197.904 320.854 200.987C319.429 204.07 322.599 207.27 327.951 208.084C333.303 208.899 338.829 207.066 340.255 203.983C341.68 200.871 338.829 207.066 340.255 203.983Z" fill="#767F27"/>
</svg>
