<svg width="163" height="141" viewBox="0 0 163 141" fill="none" xmlns="http://www.w3.org/2000/svg">
<path d="M21.5755 129.131C21.1974 129.131 20.8193 128.927 20.6157 128.578C20.3249 128.055 20.4993 127.386 21.0229 127.095L159.243 47.63L82.7448 2.02214C82.2213 1.70219 82.0467 1.03316 82.3667 0.53869C82.6866 0.0151302 83.3557 -0.15936 83.8501 0.160594L161.948 46.7283C162.268 46.932 162.471 47.281 162.471 47.6883C162.471 48.0664 162.268 48.4444 161.919 48.619L22.0991 129.015C21.9246 129.073 21.7501 129.131 21.5755 129.131Z" fill="#767F27"/>
<path d="M0.545779 130.847C2.43641 126.804 9.64993 124.419 16.6598 125.495C23.6697 126.571 27.8 130.76 25.9385 134.803C24.0478 138.846 16.8343 141.231 9.82444 140.155C2.81455 139.049 -1.34486 134.89 0.545779 130.847C2.43641 126.804 -1.34486 134.89 0.545779 130.847ZM22.9426 134.337C24.3969 131.254 21.1973 128.055 15.8454 127.211C10.4935 126.368 4.96701 128.2 3.51268 131.312C2.05834 134.396 5.25788 137.595 10.6098 138.439C15.9909 139.253 21.5173 137.42 22.9426 134.337C24.3969 131.254 21.5173 137.42 22.9426 134.337Z" fill="#767F27"/>
</svg>
