<svg width="1364" height="84" viewBox="0 0 1364 84" fill="none" xmlns="http://www.w3.org/2000/svg">
<path d="M0 6L10 11.7735V0.226497L0 6ZM1364 78L1354 72.2265V83.7735L1364 78ZM0 78L10 83.7735V72.2265L0 78ZM1364 6L1354 0.226497V11.7735L1364 6ZM25.9615 6L26.7825 5.42908L26.4842 5H25.9615V6ZM25.9615 78V79H26.462L26.762 78.5994L25.9615 78ZM1338 78L1337.2 78.6L1337.5 79H1338V78ZM1338 6V5H1337.48L1337.18 5.42851L1338 6ZM51.9231 44.3333H1312V42.3333H51.9231V44.3333ZM9 7H25.9615V5H9V7ZM25.1405 6.57092L51.1021 43.9043L52.7441 42.7624L26.7825 5.42908L25.1405 6.57092ZM51.1227 42.7339L25.1611 77.4006L26.762 78.5994L52.7235 43.9328L51.1227 42.7339ZM25.9615 77H9V79H25.9615V77ZM1311.2 43.9333L1337.2 78.6L1338.8 77.4L1312.8 42.7333L1311.2 43.9333ZM1338 79H1355V77H1338V79ZM1355 5H1338V7H1355V5ZM1337.18 5.42851L1311.18 42.7618L1312.82 43.9048L1338.82 6.57149L1337.18 5.42851Z" fill="#CECECE"/>
</svg>
