<svg width="162" height="84" viewBox="0 0 162 84" fill="none" xmlns="http://www.w3.org/2000/svg">
<path d="M162 6L152 0.226497V11.7735L162 6ZM136 6V5H135.501L135.201 5.39815L136 6ZM136 78L135.178 78.5698L135.476 79H136V78ZM162 78L152 72.2265V83.7735L162 78ZM153 5H136V7H153V5ZM110 39.5L0 39.5V41.5L110 41.5V39.5ZM136.822 77.4302L110.822 39.9302L109.178 41.0698L135.178 78.5698L136.822 77.4302ZM153 77H136V79H153V77ZM135.201 5.39815L109.201 39.8981L110.799 41.1019L136.799 6.60185L135.201 5.39815Z" fill="#CECECE"/>
</svg>
