<svg width="32" height="32" viewBox="0 0 32 32" fill="none" xmlns="http://www.w3.org/2000/svg">
<g clip-path="url(#clip0_264_7021)">
<path d="M21.6723 10.328C20.2331 8.88886 18.2014 7.95764 16.0003 7.95764C13.7993 7.95764 11.7675 8.84653 10.3284 10.328C8.88923 11.7672 7.95801 13.7989 7.95801 16C7.95801 18.201 8.88923 20.2328 10.3284 21.6719C11.7675 23.1111 13.7993 24.0423 16.0003 24.0423C18.2014 24.0423 20.2331 23.1534 21.6723 21.6719C23.1114 20.2328 24.0427 18.201 24.0427 16C24.0427 13.7989 23.1538 11.7672 21.6723 10.328ZM20.1485 20.1481C19.0903 21.2063 17.6088 21.8412 16.0003 21.8412C14.3919 21.8412 12.9104 21.2063 11.8522 20.1481C10.794 19.0899 10.1591 17.6084 10.1591 16C10.1591 14.3915 10.794 12.91 11.8522 11.8518C12.9104 10.7936 14.3919 10.1587 16.0003 10.1587C17.6088 10.1587 19.0903 10.7936 20.1485 11.8518C21.2067 12.91 21.8416 14.3915 21.8416 16C21.8416 17.6084 21.2067 19.0899 20.1485 20.1481Z" fill="#767F27"/>
<path d="M30.8998 14.8994H27.6406C27.048 14.8994 26.54 15.4073 26.54 15.9999C26.54 16.5925 27.048 17.1005 27.6406 17.1005H30.8998C31.4924 17.1005 32.0004 16.5925 32.0004 15.9999C32.0004 15.4073 31.4924 14.8994 30.8998 14.8994Z" fill="#767F27"/>
<path d="M15.9999 26.5397C15.4073 26.5397 14.8994 27.0476 14.8994 27.6402V30.8995C14.8994 31.4921 15.4073 32 15.9999 32C16.5925 32 17.1005 31.4921 17.1005 30.8995V27.6402C17.1005 27.0476 16.5925 26.5397 15.9999 26.5397Z" fill="#767F27"/>
<path d="M27.3011 25.7778L24.9731 23.4498C24.5922 23.0265 23.8726 23.0265 23.4493 23.4498C23.026 23.8731 23.026 24.5503 23.4493 24.9736L25.7773 27.3016C26.2006 27.7249 26.8779 27.7249 27.3011 27.3016C27.7244 26.8784 27.7244 26.2011 27.3011 25.7778Z" fill="#767F27"/>
<path d="M15.9999 0C15.4073 0 14.8994 0.507936 14.8994 1.10053V4.35979C14.8994 4.95238 15.4073 5.46032 15.9999 5.46032C16.5925 5.46032 17.1005 4.95238 17.1005 4.35979V1.10053C17.1005 0.507936 16.5925 0 15.9999 0Z" fill="#767F27"/>
<path d="M27.3441 4.69844C26.9208 4.27516 26.2436 4.27516 25.8203 4.69844L23.4923 7.02648C23.069 7.44976 23.069 8.12701 23.4923 8.55029C23.8732 8.97357 24.5928 8.97357 25.0161 8.55029L27.3441 6.22225C27.7674 5.79897 27.7674 5.12172 27.3441 4.69844Z" fill="#767F27"/>
<path d="M4.35979 14.8994H1.10053C0.507936 14.8994 0 15.4073 0 15.9999C0 16.5925 0.465608 17.1005 1.10053 17.1005H4.35979C4.95238 17.1005 5.46032 16.5925 5.46032 15.9999C5.46032 15.4073 4.95238 14.8994 4.35979 14.8994Z" fill="#767F27"/>
<path d="M8.50818 23.4498C8.12723 23.0265 7.40765 23.0265 6.98437 23.4498L4.65633 25.7778C4.23305 26.2011 4.23305 26.8784 4.65633 27.3016C5.07961 27.7249 5.75686 27.7249 6.18014 27.3016L8.50818 24.9736C8.93146 24.5503 8.93146 23.8731 8.50818 23.4498Z" fill="#767F27"/>
<path d="M8.50818 7.02648L6.18014 4.69844C5.75686 4.27516 5.07961 4.27516 4.65633 4.69844C4.23305 5.12172 4.23305 5.79897 4.65633 6.22225L6.98437 8.55029C7.40765 8.97357 8.0849 8.97357 8.50818 8.55029C8.93146 8.12701 8.93146 7.44976 8.50818 7.02648Z" fill="#767F27"/>
</g>
<defs>
<clipPath id="clip0_264_7021">
<rect width="32" height="32" fill="white"/>
</clipPath>
</defs>
</svg>
