<svg width="30" height="30" viewBox="0 0 30 30" fill="none" xmlns="http://www.w3.org/2000/svg">
<path d="M15 3.2C8.388 3.2 3 8.588 3 15.2C3 21.812 8.388 27.2 15 27.2C21.612 27.2 27 21.812 27 15.2C27 8.588 21.612 3.2 15 3.2ZM20.736 12.44L13.932 19.244C13.764 19.412 13.536 19.508 13.296 19.508C13.056 19.508 12.828 19.412 12.66 19.244L9.264 15.848C8.916 15.5 8.916 14.924 9.264 14.576C9.612 14.228 10.188 14.228 10.536 14.576L13.296 17.336L19.464 11.168C19.812 10.82 20.388 10.82 20.736 11.168C21.084 11.516 21.084 12.08 20.736 12.44Z" fill="#54A93F"/>
</svg>
