<svg width="32" height="32" viewBox="0 0 32 32" fill="none" xmlns="http://www.w3.org/2000/svg">
<g clip-path="url(#clip0_264_6996)">
<path d="M27.7173 20.8893C27.7173 17.0366 27.1298 13.5515 25.9711 10.531C25.0345 8.08955 23.7256 5.94549 22.0805 4.1583C19.2523 1.08571 16.4114 0.13427 16.2918 0.0952258L15.9998 0L15.7077 0.0952885C15.5882 0.13427 12.7472 1.08577 9.919 4.15836C8.27399 5.94555 6.96499 8.08961 6.02843 10.5311C4.86978 13.5516 4.28223 17.0366 4.28223 20.8893V21.8309H13.175V32.0001H15.0582V21.8309H16.9414V32.0001H18.8245V21.8309H27.7173V20.8893ZM15.0582 19.9477V17.374C15.0582 16.8548 15.4806 16.4324 15.9998 16.4324C16.519 16.4324 16.9414 16.8548 16.9414 17.374V19.9477H15.0582ZM18.8245 19.9477V17.374C18.8245 15.8165 17.5573 14.5493 15.9998 14.5493C14.4422 14.5493 13.175 15.8165 13.175 17.374V19.9477H6.17789C6.26401 16.7327 6.79463 13.8207 7.75856 11.2792C8.59733 9.06773 9.76534 7.12831 11.2303 5.51493C13.2319 3.31049 15.2602 2.31367 15.9996 2.00043C16.7415 2.31473 18.7687 3.31168 20.7693 5.51493C22.2341 7.12831 23.4022 9.06767 24.241 11.2792C25.2048 13.8207 25.7355 16.7327 25.8216 19.9477H18.8245Z" fill="#767F27"/>
</g>
<defs>
<clipPath id="clip0_264_6996">
<rect width="32" height="32" fill="white"/>
</clipPath>
</defs>
</svg>
