<svg width="32" height="32" viewBox="0 0 32 32" fill="none" xmlns="http://www.w3.org/2000/svg">
<path d="M19.2226 18.641C19.2226 18.64 19.2226 18.638 19.2226 18.636C19.2226 14.776 16.0816 11.634 12.2206 11.634C9.14359 11.634 6.49259 13.587 5.57059 16.455C3.01759 16.957 1.10059 19.233 1.10059 21.898C1.10059 24.954 3.59059 27.44 6.65059 27.44H17.8626C20.3466 27.44 22.3686 25.419 22.3686 22.934C22.3676 20.935 21.0636 19.218 19.2226 18.641ZM17.8616 25.64H6.64959C4.58159 25.64 2.89959 23.962 2.89959 21.899C2.89959 19.95 4.41459 18.309 6.34859 18.164C6.74359 18.135 7.07159 17.851 7.15959 17.465C7.69559 15.092 9.77659 13.436 12.2216 13.436C15.0896 13.436 17.4226 15.769 17.4226 18.637C17.4226 18.835 17.4076 19.033 17.3796 19.224C17.3426 19.466 17.4066 19.712 17.5556 19.907C17.7046 20.101 17.9276 20.225 18.1706 20.253C19.5376 20.404 20.5676 21.558 20.5676 22.937C20.5666 24.427 19.3536 25.64 17.8616 25.64Z" fill="#767F27"/>
<path d="M14.3564 9.35601C14.5324 9.53201 14.7624 9.62001 14.9924 9.62001C15.2224 9.62001 15.4524 9.53201 15.6284 9.35601C15.9804 9.00401 15.9804 8.43401 15.6284 8.08301L15.0434 7.49801C14.6914 7.14601 14.1224 7.14601 13.7714 7.49801C13.4204 7.85001 13.4194 8.42001 13.7714 8.77101L14.3564 9.35601Z" fill="#767F27"/>
<path d="M26.6879 7.498L26.1029 8.083C25.7509 8.435 25.7509 9.005 26.1029 9.356C26.2789 9.532 26.5099 9.62 26.7399 9.62C26.9699 9.62 27.2009 9.532 27.3769 9.356L27.9619 8.771C28.3139 8.419 28.3139 7.849 27.9619 7.498C27.6099 7.147 27.0399 7.146 26.6879 7.498Z" fill="#767F27"/>
<path d="M29.9995 13.692H29.1725C28.6755 13.692 28.2725 14.095 28.2725 14.592C28.2725 15.089 28.6755 15.492 29.1725 15.492H29.9995C30.4965 15.492 30.8995 15.089 30.8995 14.592C30.8995 14.095 30.4965 13.692 29.9995 13.692Z" fill="#767F27"/>
<path d="M20.8668 7.18806C21.3638 7.18806 21.7668 6.78506 21.7668 6.28806V5.46006C21.7668 4.96306 21.3638 4.56006 20.8668 4.56006C20.3698 4.56006 19.9668 4.96306 19.9668 5.46006V6.28706C19.9668 6.78406 20.3698 7.18806 20.8668 7.18806Z" fill="#767F27"/>
<path d="M20.8693 8.51208C19.4213 8.51208 18.0233 9.02708 16.9333 9.95908C16.5553 10.2821 16.5113 10.8501 16.8343 11.2281C17.1563 11.6061 17.7273 11.6511 18.1033 11.3271C18.8683 10.6731 19.8503 10.3131 20.8693 10.3131C23.2283 10.3131 25.1483 12.2331 25.1483 14.5931C25.1483 16.0351 24.4293 17.3681 23.2243 18.1601C22.8093 18.4321 22.6933 18.9911 22.9663 19.4061C23.1393 19.6691 23.4263 19.8121 23.7193 19.8121C23.8883 19.8121 24.0603 19.7641 24.2123 19.6641C25.9253 18.5391 26.9483 16.6431 26.9483 14.5931C26.9493 11.2401 24.2223 8.51208 20.8693 8.51208Z" fill="#767F27"/>
<path d="M27.3765 19.8281C27.0245 19.4761 26.4545 19.4761 26.1035 19.8281C25.7525 20.1801 25.7515 20.7501 26.1035 21.1011L26.6885 21.6861C26.8645 21.8621 27.0945 21.9501 27.3255 21.9501C27.5565 21.9501 27.7865 21.8621 27.9625 21.6861C28.3145 21.3341 28.3145 20.7641 27.9625 20.4131L27.3765 19.8281Z" fill="#767F27"/>
</svg>
